<svg width="813" height="186" viewBox="0 0 813 186" fill="none" xmlns="http://www.w3.org/2000/svg">
<path d="M24.0535 79H31.0935C34.6135 79 37.6935 78.89 40.9935 77.79C49.6835 74.93 52.4335 60.96 52.4335 53.15V35.11C52.4335 33.57 51.7735 32.25 50.0135 32.03H43.7435C43.4135 32.03 40.6635 32.36 40.2235 32.36L32.6335 32.8C32.0835 32.8 29.8835 33.24 29.5535 33.24C28.5635 33.35 26.9135 33.57 26.8035 34.78V42.15C26.8035 44.68 26.3635 48.09 29.5535 48.42C30.3235 48.42 33.8435 48.86 34.6135 48.86C34.7235 48.75 34.9435 49.96 34.9435 51.72C34.9435 55.79 33.8435 62.39 27.9035 62.39C27.1335 62.39 26.4735 62.28 25.5935 62.06C18.5535 58.54 18.5535 47.65 18.5535 41.05C18.5535 33.79 19.9835 18.61 30.3235 18.61H32.0835C32.0835 18.61 32.7435 18.83 32.8535 19.05C33.5135 19.38 35.0535 20.37 35.2735 20.59C35.3835 20.81 37.3635 25.21 37.5835 25.32C37.8035 25.54 38.1335 25.76 38.3535 25.76C38.3535 25.76 39.1235 25.54 39.5635 25.32C44.0735 23.56 47.9235 20.37 51.6635 17.51C52.1035 17.18 52.1035 17.07 52.1035 16.74V15.2L50.4535 12.45C45.6135 3.87 40.5535 1.89 30.9835 1.89C1.94348 0.239998 0.513477 29.94 0.513477 44.13C0.513477 57.99 4.58348 78.89 21.6335 78.56C22.0735 78.78 23.8335 79 24.0535 79ZM62.6042 78.89H94.3942C94.6142 78.89 96.2642 78.67 96.8142 78.45C97.4742 78.45 98.4642 78.12 98.4642 77.24C99.2342 73.28 99.2342 69.76 99.2342 65.8V63.38C99.0142 62.72 97.4742 62.5 97.2542 62.5L94.8342 62.17H77.8942V51.39L78.6642 50.95C84.3842 50.4 90.4342 50.18 96.0442 50.18C96.3742 49.96 96.5942 49.3 96.8142 48.97C97.0342 45.12 97.5842 42.26 97.5842 38.41V36.21C97.4742 34.45 92.6342 34.23 91.2042 34.23L77.8942 34.45V19.16H96.0442C97.0342 19.16 97.4742 17.84 97.5842 17.18C98.6842 12.34 98.7942 9.26 98.7942 4.42C97.0342 1.89 92.6342 2.44 89.9942 2.44H86.3642C78.5542 2.44 60.6242 2.88 60.6242 2.88L59.8542 3.21V37.09C59.8542 46.55 59.0842 55.79 59.0842 65.25V73.72C59.0842 74.05 59.4142 76.47 59.4142 76.91C59.6342 78.12 61.6142 78.89 62.6042 78.89ZM121.763 78.89H132.433C136.173 78.89 136.613 76.14 136.833 72.95C136.833 65.8 136.943 58.43 136.943 50.95C136.943 40.5 136.833 29.83 136.723 19.71H138.593C141.123 19.71 143.763 19.49 148.053 19.49C149.813 19.49 150.253 19.38 150.583 17.07C150.583 16.74 151.023 14.76 151.023 14.32L152.233 5.07999C152.233 4.2 152.013 3.09999 151.023 3.09999L135.623 2.77C134.083 2.66 128.363 2.54999 127.373 2.54999H115.163C112.083 2.54999 108.453 2.77 105.373 3.76C104.603 3.98 104.163 4.31 104.163 5.3V17.73L104.933 18.5C109.333 18.72 114.613 18.94 118.903 19.38V75.48C118.903 76.14 118.793 78.01 119.783 78.45C120.113 78.56 121.543 78.89 121.763 78.89ZM198.996 78.89H204.166C204.716 78.89 205.266 78.34 205.266 77.79V75.81C205.486 72.73 206.586 69.65 207.246 66.68C207.356 66.02 207.906 66.24 208.346 66.24H208.896C209.336 66.24 212.416 66.68 212.856 66.68C214.396 66.68 221.986 67.01 223.526 67.01C223.526 67.23 223.966 68 223.966 68.22L225.946 75.81C226.166 76.58 226.716 78.12 227.926 78.12H244.206C245.196 78.12 245.306 76.91 245.306 76.14V75.81C244.316 70.75 242.446 66.02 241.016 61.07C236.176 44.79 231.226 28.73 227.156 12.34C226.936 11.57 225.506 7.39 225.176 6.4C224.516 4.52999 223.306 2.44 221.106 2.44C219.786 2.44 214.066 1.99999 212.416 1.99999H210.656C208.896 1.99999 206.916 1.99999 205.706 3.53999C205.706 3.53999 205.266 4.2 205.266 4.42C202.296 13.11 199.546 22.02 197.126 30.93L189.536 59.86C189.096 61.51 185.576 74.16 185.576 75.81V76.8C185.576 77.35 185.466 77.9 186.016 78.12C186.236 78.12 187.446 78.56 187.556 78.56C189.206 78.56 196.686 78.89 198.996 78.89ZM211.646 49.63L214.726 26.53C217.586 48.97 217.806 49.74 217.806 49.96C215.826 49.96 213.406 49.74 211.646 49.63ZM264.714 78.89H273.074C275.164 77.9 277.584 77.68 279.564 76.91C285.724 74.49 288.804 69.1 291.554 63.27C292.544 61.4 293.204 58.87 293.204 56.78C293.204 56.23 293.204 55.57 292.764 55.24C292.764 55.24 291.994 54.91 291.554 54.91C291.114 54.69 287.154 53.81 286.714 53.7C283.744 52.71 281.874 50.84 278.464 50.84C274.064 50.84 275.384 62.39 268.344 62.39C265.154 62.39 264.164 59.2 263.174 54.47C262.294 51.5 261.964 48.42 261.964 45.23C261.964 43.47 262.294 38.41 262.294 38.08C262.954 32.69 262.294 19.38 271.204 19.38C273.404 19.38 274.174 19.38 275.164 21.36C278.134 29.72 275.934 31.7 279.894 31.7C281.764 31.7 282.754 31.37 284.734 30.93C286.934 30.38 291.994 30.6 293.204 28.4C293.204 28.4 293.534 26.64 293.534 25.98C293.534 19.27 288.364 7.60999 282.754 4.42C279.124 2.44 275.384 1.99999 271.314 1.99999C249.644 1.99999 244.254 22.79 244.254 39.62V46.11C244.254 52.27 247.334 65.91 251.074 70.09C251.844 70.86 254.704 73.72 255.144 74.05C255.144 74.05 257.124 75.48 257.894 76.14C259.544 77.35 262.734 78.89 264.714 78.89ZM318.425 78.89H326.785C328.875 77.9 331.295 77.68 333.275 76.91C339.435 74.49 342.515 69.1 345.265 63.27C346.255 61.4 346.915 58.87 346.915 56.78C346.915 56.23 346.915 55.57 346.475 55.24C346.475 55.24 345.705 54.91 345.265 54.91C344.825 54.69 340.865 53.81 340.425 53.7C337.455 52.71 335.585 50.84 332.175 50.84C327.775 50.84 329.095 62.39 322.055 62.39C318.865 62.39 317.875 59.2 316.885 54.47C316.005 51.5 315.675 48.42 315.675 45.23C315.675 43.47 316.005 38.41 316.005 38.08C316.665 32.69 316.005 19.38 324.915 19.38C327.115 19.38 327.885 19.38 328.875 21.36C331.845 29.72 329.645 31.7 333.605 31.7C335.475 31.7 336.465 31.37 338.445 30.93C340.645 30.38 345.705 30.6 346.915 28.4C346.915 28.4 347.245 26.64 347.245 25.98C347.245 19.27 342.075 7.60999 336.465 4.42C332.835 2.44 329.095 1.99999 325.025 1.99999C303.355 1.99999 297.965 22.79 297.965 39.62V46.11C297.965 52.27 301.045 65.91 304.785 70.09C305.555 70.86 308.415 73.72 308.855 74.05C308.855 74.05 310.835 75.48 311.605 76.14C313.255 77.35 316.445 78.89 318.425 78.89ZM355.221 78.89H387.011C387.231 78.89 388.881 78.67 389.431 78.45C390.091 78.45 391.081 78.12 391.081 77.24C391.851 73.28 391.851 69.76 391.851 65.8V63.38C391.631 62.72 390.091 62.5 389.871 62.5L387.451 62.17H370.511V51.39L371.281 50.95C377.001 50.4 383.051 50.18 388.661 50.18C388.991 49.96 389.211 49.3 389.431 48.97C389.651 45.12 390.201 42.26 390.201 38.41V36.21C390.091 34.45 385.251 34.23 383.821 34.23L370.511 34.45V19.16H388.661C389.651 19.16 390.091 17.84 390.201 17.18C391.301 12.34 391.411 9.26 391.411 4.42C389.651 1.89 385.251 2.44 382.611 2.44H378.981C371.171 2.44 353.241 2.88 353.241 2.88L352.471 3.21V37.09C352.471 46.55 351.701 55.79 351.701 65.25V73.72C351.701 74.05 352.031 76.47 352.031 76.91C352.251 78.12 354.231 78.89 355.221 78.89ZM411.85 78.89L417.24 78.78C418.56 78.78 422.41 78.56 422.63 78.56C426.92 78.45 433.41 75.37 436.38 72.73C441.77 68 443.86 61.84 443.86 55.79C443.86 51.06 442.65 46.55 438.36 42.15C436.49 40.28 434.95 39.73 432.42 38.3C426.37 35.22 427.03 35.77 421.09 32.58C419.66 32.14 415.92 29.61 415.81 25.98C415.81 22.35 418.89 21.58 419.99 21.58C423.95 21.36 427.91 22.13 431.65 23.23L436.27 24.55C437.48 24.55 437.92 21.8 438.14 21.03C438.58 19.05 438.69 16.96 438.69 14.76C438.69 13.22 438.69 11.57 438.58 9.92L438.47 7.5C435.06 5.52 426.26 4.97 421.31 4.97C417.57 4.97 412.29 5.3 408.22 7.28C400.19 11.02 396.89 19.27 397.22 28.84C397.44 38.41 408.66 46.77 418.34 50.51C425.38 53.37 425.71 55.79 425.71 58.1C425.71 60.3 423.95 62.83 419.99 62.83C419.44 62.83 418.89 62.83 418.34 62.72C413.83 62.94 402.5 56.78 401.29 56.78C399.64 56.78 398.65 62.06 398.43 63.49C398.32 63.71 397.99 65.25 397.88 65.25C397.88 65.25 397.77 65.14 397.77 64.92C397.55 66.13 396.78 70.2 396.78 70.75C396.89 73.72 397.77 74.27 400.41 75.26C403.49 76.47 408.66 78.67 411.85 78.89ZM462.231 78.89L467.621 78.78C468.941 78.78 472.791 78.56 473.011 78.56C477.301 78.45 483.791 75.37 486.761 72.73C492.151 68 494.241 61.84 494.241 55.79C494.241 51.06 493.031 46.55 488.741 42.15C486.871 40.28 485.331 39.73 482.801 38.3C476.751 35.22 477.411 35.77 471.471 32.58C470.041 32.14 466.301 29.61 466.191 25.98C466.191 22.35 469.271 21.58 470.371 21.58C474.331 21.36 478.291 22.13 482.031 23.23L486.651 24.55C487.861 24.55 488.301 21.8 488.521 21.03C488.961 19.05 489.071 16.96 489.071 14.76C489.071 13.22 489.071 11.57 488.961 9.92L488.851 7.5C485.441 5.52 476.641 4.97 471.691 4.97C467.951 4.97 462.671 5.3 458.601 7.28C450.571 11.02 447.271 19.27 447.601 28.84C447.821 38.41 459.041 46.77 468.721 50.51C475.761 53.37 476.091 55.79 476.091 58.1C476.091 60.3 474.331 62.83 470.371 62.83C469.821 62.83 469.271 62.83 468.721 62.72C464.211 62.94 452.881 56.78 451.671 56.78C450.021 56.78 449.031 62.06 448.811 63.49C448.701 63.71 448.371 65.25 448.261 65.25C448.261 65.25 448.151 65.14 448.151 64.92C447.931 66.13 447.161 70.2 447.161 70.75C447.271 73.72 448.151 74.27 450.791 75.26C453.871 76.47 459.041 78.67 462.231 78.89ZM545.757 78.89H556.427C560.167 78.89 560.607 76.14 560.827 72.95C560.827 65.8 560.937 58.43 560.937 50.95C560.937 40.5 560.827 29.83 560.717 19.71H562.587C565.117 19.71 567.757 19.49 572.047 19.49C573.807 19.49 574.247 19.38 574.577 17.07C574.577 16.74 575.017 14.76 575.017 14.32L576.227 5.07999C576.227 4.2 576.007 3.09999 575.017 3.09999L559.617 2.77C558.077 2.66 552.357 2.54999 551.367 2.54999H539.157C536.077 2.54999 532.447 2.77 529.367 3.76C528.597 3.98 528.157 4.31 528.157 5.3V17.73L528.927 18.5C533.327 18.72 538.607 18.94 542.897 19.38V75.48C542.897 76.14 542.787 78.01 543.777 78.45C544.107 78.56 545.537 78.89 545.757 78.89ZM601.5 78.89C604.8 78.89 608.32 78.34 611.4 77.35C612.83 76.91 614.15 75.92 615.36 75.04C626.58 67.12 628.01 48.31 628.01 35.55C628.01 24.11 626.69 15.09 618.44 7.28C614.15 3.64999 606.34 1.89 600.73 1.89C596.99 1.89 593.58 3.09999 590.39 4.97C586.32 7.5 580.05 16.63 578.73 20.92C578.4 21.91 577.19 27.41 576.86 28.73C576.86 28.95 576.2 31.81 575.98 33.02L575.65 35.33V47.76L575.98 50.07C578.51 64.7 587.53 79.99 601.5 78.89ZM593.14 43.8C593.14 39.29 593.58 35.11 593.58 33.24C593.58 32.91 593.91 30.38 593.91 29.72C594.35 27.63 596.11 21.58 598.2 20.48C599.96 19.49 601.72 19.27 603.48 19.27C609.86 19.27 609.86 27.08 609.86 31.7V35.99C609.86 35.99 609.97 37.53 609.97 39.73C609.97 46.99 609.09 61.84 601.72 61.84C594.46 61.84 593.14 52.16 593.14 43.8ZM680.034 78.89H690.704C694.444 78.89 694.884 76.14 695.104 72.95C695.104 65.8 695.214 58.43 695.214 50.95C695.214 40.5 695.104 29.83 694.994 19.71H696.864C699.394 19.71 702.034 19.49 706.324 19.49C708.084 19.49 708.524 19.38 708.854 17.07C708.854 16.74 709.294 14.76 709.294 14.32L710.504 5.07999C710.504 4.2 710.284 3.09999 709.294 3.09999L693.894 2.77C692.354 2.66 686.634 2.54999 685.644 2.54999H673.434C670.354 2.54999 666.724 2.77 663.644 3.76C662.874 3.98 662.434 4.31 662.434 5.3V17.73L663.204 18.5C667.604 18.72 672.884 18.94 677.174 19.38V75.48C677.174 76.14 677.064 78.01 678.054 78.45C678.384 78.56 679.814 78.89 680.034 78.89ZM723.902 78.89H726.102C728.192 78.89 733.032 79.22 733.802 76.58C733.802 73.94 734.132 60.96 734.132 58.32C734.132 57.11 734.572 52.16 734.572 51.06C736.442 51.06 744.802 51.39 746.342 51.39V75.81C746.342 76.36 747.222 77.35 747.772 77.35C747.992 77.35 749.202 77.13 749.312 76.91C750.852 76.91 757.012 76.58 758.552 76.58C762.622 76.36 763.832 76.58 764.162 73.17C764.162 71.08 764.602 61.51 764.602 59.42C764.602 56.78 764.932 35.77 764.932 33.13C764.932 31.59 765.702 19.38 765.702 17.95V5.74C765.702 4.42 763.282 4.2 762.292 4.2C760.422 4.2 750.962 3.76 748.982 3.76C748.652 3.98 748.102 4.2 747.882 4.52999C747.882 6.29 747.442 33.68 746.672 34.45H746.012C744.692 34.56 743.482 34.67 742.162 34.67C739.742 34.67 737.212 34.45 734.572 34.45C734.572 26.2 735.342 16.3 735.342 8.27C735.342 6.61999 735.232 4.42 733.362 3.76H722.362C721.812 3.76 718.732 3.98 718.182 4.2C717.742 4.2 716.422 5.19 716.422 5.74V49.85C715.652 56.34 715.432 62.61 715.432 69.1V76.58C716.202 78.89 718.952 78.23 720.822 78.45C721.152 78.45 723.462 78.89 723.902 78.89ZM775.778 78.89H807.568C807.788 78.89 809.438 78.67 809.988 78.45C810.648 78.45 811.638 78.12 811.638 77.24C812.408 73.28 812.408 69.76 812.408 65.8V63.38C812.188 62.72 810.648 62.5 810.428 62.5L808.008 62.17H791.068V51.39L791.838 50.95C797.558 50.4 803.608 50.18 809.218 50.18C809.548 49.96 809.768 49.3 809.988 48.97C810.208 45.12 810.758 42.26 810.758 38.41V36.21C810.648 34.45 805.808 34.23 804.378 34.23L791.068 34.45V19.16H809.218C810.208 19.16 810.648 17.84 810.758 17.18C811.858 12.34 811.968 9.26 811.968 4.42C810.208 1.89 805.808 2.44 803.168 2.44H799.538C791.728 2.44 773.798 2.88 773.798 2.88L773.028 3.21V37.09C773.028 46.55 772.258 55.79 772.258 65.25V73.72C772.258 74.05 772.588 76.47 772.588 76.91C772.808 78.12 774.788 78.89 775.778 78.89ZM143.217 185.89H166.537C180.507 185.89 187.217 177.75 187.217 160.48C187.217 155.31 184.797 150.03 181.607 146.29C180.837 145.3 179.187 144.86 178.417 143.87C182.377 139.8 185.017 131.88 185.017 126.38C185.017 122.86 184.357 120 183.037 116.59C180.177 109.44 173.687 110.1 167.307 109.44L162.027 109H153.447C152.237 109 144.427 109.99 142.007 109.77L141.237 110.65L140.797 125.06C140.357 144.86 140.027 164.44 140.027 184.35L140.467 185.12L143.217 185.89ZM158.067 158.17V157.4C159.057 157.07 159.827 157.07 160.927 157.07C166.537 157.07 168.517 159.6 168.517 162.24C168.517 164.88 166.537 168.51 164.007 169.17H158.397C158.397 167.96 158.067 159.38 158.067 158.17ZM158.507 141.67V125.83C158.507 125.5 159.827 125.5 160.047 125.5C162.467 125.5 164.337 126.49 165.657 128.25C165.877 128.47 166.097 128.91 166.097 129.13V133.86C166.097 138.15 163.567 141.67 158.507 141.67ZM196.183 185.89H227.973C228.193 185.89 229.843 185.67 230.393 185.45C231.053 185.45 232.043 185.12 232.043 184.24C232.813 180.28 232.813 176.76 232.813 172.8V170.38C232.593 169.72 231.053 169.5 230.833 169.5L228.413 169.17H211.473V158.39L212.243 157.95C217.963 157.4 224.013 157.18 229.623 157.18C229.953 156.96 230.173 156.3 230.393 155.97C230.613 152.12 231.163 149.26 231.163 145.41V143.21C231.053 141.45 226.213 141.23 224.783 141.23L211.473 141.45V126.16H229.623C230.613 126.16 231.053 124.84 231.163 124.18C232.263 119.34 232.373 116.26 232.373 111.42C230.613 108.89 226.213 109.44 223.573 109.44H219.943C212.133 109.44 194.203 109.88 194.203 109.88L193.433 110.21V144.09C193.433 153.55 192.663 162.79 192.663 172.25V180.72C192.663 181.05 192.993 183.47 192.993 183.91C193.213 185.12 195.193 185.89 196.183 185.89ZM252.812 185.89L258.202 185.78C259.522 185.78 263.372 185.56 263.592 185.56C267.882 185.45 274.372 182.37 277.342 179.73C282.732 175 284.822 168.84 284.822 162.79C284.822 158.06 283.612 153.55 279.322 149.15C277.452 147.28 275.912 146.73 273.382 145.3C267.332 142.22 267.992 142.77 262.052 139.58C260.622 139.14 256.882 136.61 256.772 132.98C256.772 129.35 259.852 128.58 260.952 128.58C264.912 128.36 268.872 129.13 272.612 130.23L277.232 131.55C278.442 131.55 278.882 128.8 279.102 128.03C279.542 126.05 279.652 123.96 279.652 121.76C279.652 120.22 279.652 118.57 279.542 116.92L279.432 114.5C276.022 112.52 267.222 111.97 262.272 111.97C258.532 111.97 253.252 112.3 249.182 114.28C241.152 118.02 237.852 126.27 238.182 135.84C238.402 145.41 249.622 153.77 259.302 157.51C266.342 160.37 266.672 162.79 266.672 165.1C266.672 167.3 264.912 169.83 260.952 169.83C260.402 169.83 259.852 169.83 259.302 169.72C254.792 169.94 243.462 163.78 242.252 163.78C240.602 163.78 239.612 169.06 239.392 170.49C239.282 170.71 238.952 172.25 238.842 172.25C238.842 172.25 238.732 172.14 238.732 171.92C238.512 173.13 237.742 177.2 237.742 177.75C237.852 180.72 238.732 181.27 241.372 182.26C244.452 183.47 249.622 185.67 252.812 185.89ZM303.574 185.89H314.244C317.984 185.89 318.424 183.14 318.644 179.95C318.644 172.8 318.754 165.43 318.754 157.95C318.754 147.5 318.644 136.83 318.534 126.71H320.404C322.934 126.71 325.574 126.49 329.864 126.49C331.624 126.49 332.064 126.38 332.394 124.07C332.394 123.74 332.834 121.76 332.834 121.32L334.044 112.08C334.044 111.2 333.824 110.1 332.834 110.1L317.434 109.77C315.894 109.66 310.174 109.55 309.184 109.55H296.974C293.894 109.55 290.264 109.77 287.184 110.76C286.414 110.98 285.974 111.31 285.974 112.3V124.73L286.744 125.5C291.144 125.72 296.424 125.94 300.714 126.38V182.48C300.714 183.14 300.604 185.01 301.594 185.45C301.924 185.56 303.354 185.89 303.574 185.89ZM373.107 185.89H404.897C405.117 185.89 406.767 185.67 407.317 185.45C407.977 185.45 408.967 185.12 408.967 184.24C409.737 180.28 409.737 176.76 409.737 172.8V170.38C409.517 169.72 407.977 169.5 407.757 169.5L405.337 169.17H388.397V158.39L389.167 157.95C394.887 157.4 400.937 157.18 406.547 157.18C406.877 156.96 407.097 156.3 407.317 155.97C407.537 152.12 408.087 149.26 408.087 145.41V143.21C407.977 141.45 403.137 141.23 401.707 141.23L388.397 141.45V126.16H406.547C407.537 126.16 407.977 124.84 408.087 124.18C409.187 119.34 409.297 116.26 409.297 111.42C407.537 108.89 403.137 109.44 400.497 109.44H396.867C389.057 109.44 371.127 109.88 371.127 109.88L370.357 110.21V144.09C370.357 153.55 369.587 162.79 369.587 172.25V180.72C369.587 181.05 369.917 183.47 369.917 183.91C370.137 185.12 372.117 185.89 373.107 185.89ZM443.706 185.89H448.436C448.656 185.89 449.096 185.45 449.316 185.45L451.296 183.47C451.296 183.47 451.846 182.26 452.066 181.93C457.896 162.9 462.186 147.5 466.806 130.23L467.906 125.83C468.126 124.84 470.106 117.69 470.326 116.7C470.766 115.49 471.536 114.5 471.536 113.18C471.536 112.19 471.316 111.97 470.326 111.53C469.336 111.53 464.936 111.2 463.946 111.2H462.736C461.196 111.2 455.806 111.53 454.156 111.53C452.396 112.74 451.846 116.15 451.406 117.91L446.236 137.38C445.796 139.14 444.476 147.5 444.256 147.94C444.256 148.16 443.816 148.49 443.816 148.71C442.606 144.2 440.296 136.61 438.646 132.21C438.536 131.77 437.876 130.01 437.876 129.79L435.456 120.33C435.346 119.34 434.136 115.16 433.916 114.28C433.476 113.18 433.366 111.97 431.936 111.53C427.756 110.76 425.556 110.76 421.376 110.76H416.646C414.886 111.31 414.666 112.63 414.666 114.28C414.666 114.5 415.876 116.92 415.876 117.14C419.066 126.27 421.596 135.4 424.566 144.53C425.446 147.17 437.436 182.81 438.096 183.47C438.096 183.69 438.646 185.12 439.306 185.45C440.736 185.45 442.276 185.89 443.706 185.89ZM477.843 185.89H509.633C509.853 185.89 511.503 185.67 512.053 185.45C512.713 185.45 513.703 185.12 513.703 184.24C514.473 180.28 514.473 176.76 514.473 172.8V170.38C514.253 169.72 512.713 169.5 512.493 169.5L510.073 169.17H493.133V158.39L493.903 157.95C499.623 157.4 505.673 157.18 511.283 157.18C511.613 156.96 511.833 156.3 512.053 155.97C512.273 152.12 512.823 149.26 512.823 145.41V143.21C512.713 141.45 507.873 141.23 506.443 141.23L493.133 141.45V126.16H511.283C512.273 126.16 512.713 124.84 512.823 124.18C513.923 119.34 514.033 116.26 514.033 111.42C512.273 108.89 507.873 109.44 505.233 109.44H501.603C493.793 109.44 475.863 109.88 475.863 109.88L475.093 110.21V144.09C475.093 153.55 474.323 162.79 474.323 172.25V180.72C474.323 181.05 474.653 183.47 474.653 183.91C474.873 185.12 476.853 185.89 477.843 185.89ZM563.732 185.89H565.932C566.812 185.89 567.802 185.45 568.572 185.45C569.562 185.45 571.652 185.34 571.872 183.91C571.872 181.05 572.202 168.29 572.202 165.43V164.44C572.202 149.04 571.872 133.31 571.872 117.69L572.202 110.54C572.202 109.66 570.992 108.89 570.442 108.89H570.222C570.002 108.89 567.582 109.33 567.362 109.33C565.822 109.33 557.792 109.66 556.142 109.66C554.602 109.88 553.722 111.09 553.722 112.52V117.91C553.722 122.53 554.382 136.5 554.382 141.12C554.382 141.12 543.602 113.73 542.942 112.85C542.502 112.3 541.402 110.65 540.192 110.54C539.862 110.54 537.772 110.1 537.442 110.1C536.452 110.1 528.752 109.66 527.762 109.66L525.342 109.33H524.132C522.482 109.33 521.932 109.66 521.052 110.87C521.162 113.51 521.382 125.17 521.492 127.7V161.03C521.492 164.55 521.382 171.59 521.492 172.69C521.492 174.23 521.492 181.93 521.602 183.47C521.602 183.69 521.822 184.24 522.042 184.24C522.592 184.68 524.352 185.45 524.572 185.45H539.312C539.972 185.45 540.412 183.91 540.412 183.47C540.742 179.51 540.852 175.22 540.852 170.82C540.852 163.34 540.522 155.64 540.302 148.71C543.272 153.77 552.732 180.83 553.502 183.47C553.722 183.69 554.162 185.12 554.712 185.45C557.792 185.34 560.762 185.89 563.732 185.89ZM594.795 185.89H605.465C609.205 185.89 609.645 183.14 609.865 179.95C609.865 172.8 609.975 165.43 609.975 157.95C609.975 147.5 609.865 136.83 609.755 126.71H611.625C614.155 126.71 616.795 126.49 621.085 126.49C622.845 126.49 623.285 126.38 623.615 124.07C623.615 123.74 624.055 121.76 624.055 121.32L625.265 112.08C625.265 111.2 625.045 110.1 624.055 110.1L608.655 109.77C607.115 109.66 601.395 109.55 600.405 109.55H588.195C585.115 109.55 581.485 109.77 578.405 110.76C577.635 110.98 577.195 111.31 577.195 112.3V124.73L577.965 125.5C582.365 125.72 587.645 125.94 591.935 126.38V182.48C591.935 183.14 591.825 185.01 592.815 185.45C593.145 185.56 594.575 185.89 594.795 185.89ZM643.613 185.89L649.003 185.78C650.323 185.78 654.173 185.56 654.393 185.56C658.683 185.45 665.173 182.37 668.143 179.73C673.533 175 675.623 168.84 675.623 162.79C675.623 158.06 674.413 153.55 670.123 149.15C668.253 147.28 666.713 146.73 664.183 145.3C658.133 142.22 658.793 142.77 652.853 139.58C651.423 139.14 647.683 136.61 647.573 132.98C647.573 129.35 650.653 128.58 651.753 128.58C655.713 128.36 659.673 129.13 663.413 130.23L668.033 131.55C669.243 131.55 669.683 128.8 669.903 128.03C670.343 126.05 670.453 123.96 670.453 121.76C670.453 120.22 670.453 118.57 670.343 116.92L670.233 114.5C666.823 112.52 658.023 111.97 653.073 111.97C649.333 111.97 644.053 112.3 639.983 114.28C631.953 118.02 628.653 126.27 628.983 135.84C629.203 145.41 640.423 153.77 650.103 157.51C657.143 160.37 657.473 162.79 657.473 165.1C657.473 167.3 655.713 169.83 651.753 169.83C651.203 169.83 650.653 169.83 650.103 169.72C645.593 169.94 634.263 163.78 633.053 163.78C631.403 163.78 630.413 169.06 630.193 170.49C630.083 170.71 629.753 172.25 629.643 172.25C629.643 172.25 629.533 172.14 629.533 171.92C629.313 173.13 628.543 177.2 628.543 177.75C628.653 180.72 629.533 181.27 632.173 182.26C635.253 183.47 640.423 185.67 643.613 185.89Z" fill="white"/>
</svg>
