<svg width="15" height="16" viewBox="0 0 15 16" fill="none" xmlns="http://www.w3.org/2000/svg">
<path d="M6.41471 13.3287C7.83796 13.3284 9.22019 12.852 10.3413 11.9753L13.8662 15.5L15 14.3663L11.4751 10.8416C12.3523 9.72038 12.8291 8.33791 12.8294 6.91437C12.8294 3.37765 9.95162 0.5 6.41471 0.5C2.8778 0.5 0 3.37765 0 6.91437C0 10.4511 2.8778 13.3287 6.41471 13.3287ZM6.41471 2.10359C9.068 2.10359 11.2257 4.26123 11.2257 6.91437C11.2257 9.56751 9.068 11.7251 6.41471 11.7251C3.76143 11.7251 1.60368 9.56751 1.60368 6.91437C1.60368 4.26123 3.76143 2.10359 6.41471 2.10359Z" fill="white"/>
</svg>
