<svg width="148" height="28" viewBox="0 0 148 28" fill="none" xmlns="http://www.w3.org/2000/svg">
<path d="M4.26446 4.27905H0.159859C0.117455 4.27905 0.076788 4.26202 0.046804 4.2317C0.01682 4.20137 -2.4864e-05 4.16025 -2.4864e-05 4.11737V0.557429C-0.00116471 0.535632 0.00214818 0.513832 0.00970722 0.493387C0.0172663 0.472942 0.0289093 0.454291 0.0439104 0.438598C0.0589115 0.422904 0.0769489 0.410505 0.0968977 0.402172C0.116847 0.393839 0.138279 0.389752 0.159859 0.390165H12.9147C12.9356 0.389795 12.9563 0.393632 12.9757 0.401451C12.9951 0.409271 13.0127 0.420917 13.0276 0.435709C13.0425 0.450501 13.0543 0.468144 13.0624 0.487606C13.0705 0.507069 13.0746 0.527962 13.0746 0.549066V4.11737C13.0746 4.16025 13.0578 4.20137 13.0278 4.2317C12.9978 4.26202 12.9571 4.27905 12.9147 4.27905H8.82115C8.80028 4.27868 8.77956 4.28252 8.76017 4.29034C8.74079 4.29816 8.72314 4.30981 8.70826 4.3246C8.69337 4.33939 8.68155 4.35703 8.67348 4.3765C8.66542 4.39596 8.66126 4.41685 8.66127 4.43795V27.4507C8.66127 27.4936 8.64442 27.5347 8.61444 27.565C8.58445 27.5954 8.54379 27.6124 8.50138 27.6124H4.58147C4.53907 27.6124 4.4984 27.5954 4.46842 27.565C4.43843 27.5347 4.42159 27.4936 4.42159 27.4507V4.43795C4.42159 4.39581 4.40503 4.35539 4.37557 4.32559C4.3461 4.2958 4.30613 4.27905 4.26446 4.27905Z" fill="white"/>
<path d="M15.2717 0.390169H19.1833C19.2042 0.389799 19.2249 0.393636 19.2443 0.401455C19.2637 0.409275 19.2813 0.420921 19.2962 0.435713C19.3111 0.450505 19.3229 0.468148 19.331 0.487611C19.339 0.507073 19.3432 0.527966 19.3432 0.54907V27.4507C19.3432 27.4936 19.3263 27.5347 19.2964 27.565C19.2664 27.5954 19.2257 27.6124 19.1833 27.6124H15.2717C15.2508 27.6124 15.2301 27.6082 15.2109 27.6C15.1916 27.5919 15.1742 27.5799 15.1596 27.5649C15.1449 27.5498 15.1334 27.532 15.1257 27.5124C15.118 27.4928 15.1142 27.4718 15.1145 27.4507V0.557433C15.113 0.535777 15.1159 0.514035 15.1232 0.493595C15.1304 0.473155 15.1418 0.454468 15.1566 0.438727C15.1714 0.422986 15.1892 0.410537 15.2091 0.402176C15.2289 0.393815 15.2502 0.389726 15.2717 0.390169Z" fill="white"/>
<path d="M23.8226 26.2521C22.7586 25.085 22.2266 23.4383 22.2266 21.3122V6.69056C22.2266 4.56445 22.7586 2.91783 23.8226 1.7507C24.8867 0.583566 26.4313 0 28.4565 0C30.478 0 32.0227 0.583566 33.0904 1.7507C34.1581 2.91783 34.6901 4.56445 34.6865 6.69056V9.40582C34.6865 9.4487 34.6696 9.48982 34.6396 9.52015C34.6097 9.55047 34.569 9.5675 34.5266 9.5675H30.8465C30.8041 9.5675 30.7634 9.55047 30.7334 9.52015C30.7035 9.48982 30.6866 9.4487 30.6866 9.40582V6.41179C30.6866 4.72428 29.9818 3.88145 28.5723 3.88331C27.1627 3.88517 26.4598 4.728 26.4635 6.41179V21.6217C26.4635 23.2832 27.1683 24.113 28.5778 24.1111C29.9874 24.1093 30.6921 23.2794 30.6921 21.6217V17.6241C30.6921 17.5812 30.709 17.54 30.739 17.5097C30.7689 17.4794 30.8096 17.4624 30.852 17.4624H34.5321C34.5745 17.4624 34.6152 17.4794 34.6452 17.5097C34.6751 17.54 34.692 17.5812 34.692 17.6241V21.3122C34.692 23.4383 34.16 25.085 33.0959 26.2521C32.0318 27.4192 30.4872 28.0019 28.462 28C26.4313 28 24.8849 27.4174 23.8226 26.2521Z" fill="white"/>
<path d="M37.3824 0.390381H41.2968C41.3385 0.390381 41.3785 0.407122 41.4079 0.436922C41.4374 0.466722 41.454 0.507139 41.454 0.549282V11.151C41.4544 11.1874 41.4669 11.2225 41.4895 11.2507C41.512 11.279 41.5434 11.2987 41.5784 11.3068C41.6134 11.3149 41.6501 11.3107 41.6826 11.2951C41.715 11.2795 41.7413 11.2533 41.7572 11.2207L46.7963 0.487952C46.8087 0.460129 46.8289 0.436587 46.8543 0.420237C46.8798 0.403887 46.9095 0.395446 46.9396 0.395956H50.7989C50.8263 0.395566 50.8533 0.402412 50.8772 0.415816C50.9012 0.429219 50.9212 0.448716 50.9354 0.472375C50.9496 0.496035 50.9575 0.523036 50.9582 0.550705C50.9589 0.578374 50.9524 0.605751 50.9395 0.630126L46.0603 10.3147C46.0451 10.3532 46.0451 10.3961 46.0603 10.4346L51.0828 27.4035C51.0901 27.4276 51.0918 27.4531 51.0876 27.4779C51.0835 27.5027 51.0736 27.5262 51.0589 27.5465C51.0442 27.5668 51.025 27.5834 51.0028 27.5949C50.9806 27.6063 50.9561 27.6124 50.9312 27.6126H46.8404C46.8064 27.6123 46.7734 27.6011 46.7461 27.5806C46.7188 27.56 46.6987 27.5312 46.6888 27.4983L43.2623 15.8707C43.2528 15.84 43.2345 15.813 43.2097 15.7929C43.1849 15.7728 43.1548 15.7607 43.1232 15.758C43.0915 15.7553 43.0598 15.7622 43.0321 15.7778C43.0043 15.7934 42.9818 15.817 42.9673 15.8456L41.4705 18.9121C41.4595 18.9336 41.4539 18.9575 41.454 18.9818V27.4565C41.454 27.4989 41.4375 27.5396 41.4081 27.5698C41.3787 27.6001 41.3388 27.6174 41.2968 27.6182H37.3824C37.3405 27.6174 37.3006 27.6001 37.2712 27.5698C37.2418 27.5396 37.2253 27.4989 37.2253 27.4565V0.557645C37.2242 0.536085 37.2274 0.51452 37.2348 0.494265C37.2422 0.47401 37.2536 0.455492 37.2683 0.439839C37.283 0.424186 37.3007 0.411728 37.3203 0.403225C37.34 0.394721 37.3611 0.390351 37.3824 0.390381Z" fill="white"/>
<path d="M53.3046 0.390165H64.5213C64.5422 0.389795 64.5629 0.393632 64.5823 0.401451C64.6017 0.409271 64.6193 0.420917 64.6342 0.435709C64.6491 0.450501 64.6609 0.468144 64.669 0.487606C64.677 0.507069 64.6812 0.527962 64.6812 0.549066V4.11737C64.6812 4.16025 64.6643 4.20137 64.6344 4.2317C64.6044 4.26202 64.5637 4.27905 64.5213 4.27905H57.5333C57.5125 4.27868 57.4919 4.28253 57.4727 4.29038C57.4535 4.29823 57.436 4.30992 57.4213 4.32475C57.4067 4.33958 57.3951 4.35725 57.3874 4.3767C57.3796 4.39615 57.3758 4.41698 57.3762 4.43795V11.3125C57.3762 11.3547 57.3927 11.3951 57.4222 11.4249C57.4516 11.4547 57.4916 11.4714 57.5333 11.4714H63.0217C63.0641 11.4714 63.1048 11.4884 63.1348 11.5188C63.1647 11.5491 63.1816 11.5902 63.1816 11.6331V15.2014C63.1816 15.2225 63.1774 15.2434 63.1694 15.2629C63.1613 15.2823 63.1495 15.3 63.1346 15.3148C63.1197 15.3295 63.1021 15.3412 63.0827 15.349C63.0633 15.3568 63.0426 15.3607 63.0217 15.3603H57.5333C57.5124 15.3603 57.4918 15.3645 57.4725 15.3727C57.4533 15.3808 57.4358 15.3928 57.4212 15.4078C57.4066 15.4229 57.395 15.4407 57.3873 15.4603C57.3796 15.4799 57.3758 15.5009 57.3762 15.522V23.5618C57.3758 23.5829 57.3796 23.6039 57.3873 23.6235C57.395 23.6431 57.4066 23.6609 57.4212 23.676C57.4358 23.691 57.4533 23.703 57.4725 23.7111C57.4918 23.7193 57.5124 23.7235 57.5333 23.7235H64.5213C64.5637 23.7235 64.6044 23.7405 64.6344 23.7709C64.6643 23.8012 64.6812 23.8423 64.6812 23.8852V27.4507C64.6812 27.4936 64.6643 27.5347 64.6344 27.565C64.6044 27.5954 64.5637 27.6124 64.5213 27.6124H53.3046C53.2622 27.6124 53.2216 27.5954 53.1916 27.565C53.1616 27.5347 53.1448 27.4936 53.1448 27.4507V0.557429C53.1436 0.535632 53.1469 0.513832 53.1545 0.493387C53.162 0.472942 53.1737 0.454291 53.1887 0.438598C53.2037 0.422904 53.2217 0.410505 53.2417 0.402172C53.2616 0.393839 53.2831 0.389752 53.3046 0.390165Z" fill="white"/>
<path d="M70.2523 4.27905H66.1588C66.1164 4.27905 66.0757 4.26202 66.0457 4.2317C66.0157 4.20137 65.9989 4.16025 65.9989 4.11737V0.557429C65.9977 0.535632 66.0011 0.513832 66.0086 0.493387C66.0162 0.472942 66.0278 0.454291 66.0428 0.438598C66.0578 0.422904 66.0759 0.410505 66.0958 0.402172C66.1158 0.393839 66.1372 0.389752 66.1588 0.390165H78.9164C78.9371 0.389787 78.9577 0.393639 78.977 0.401491C78.9962 0.409343 79.0137 0.421033 79.0283 0.435864C79.043 0.450696 79.0546 0.468364 79.0623 0.487813C79.0701 0.507263 79.0739 0.528095 79.0735 0.549066V4.11737C79.0739 4.13847 79.0701 4.15943 79.0624 4.17903C79.0546 4.19863 79.0431 4.21648 79.0285 4.23153C79.0138 4.24658 78.9964 4.25854 78.9772 4.2667C78.9579 4.27486 78.9373 4.27906 78.9164 4.27905H74.8008C74.7799 4.27868 74.7592 4.28252 74.7398 4.29034C74.7204 4.29816 74.7027 4.30981 74.6879 4.3246C74.673 4.33939 74.6612 4.35703 74.6531 4.3765C74.645 4.39596 74.6409 4.41685 74.6409 4.43795V27.4507C74.6409 27.4936 74.624 27.5347 74.594 27.565C74.5641 27.5954 74.5234 27.6124 74.481 27.6124H70.5693C70.5485 27.6124 70.5278 27.6082 70.5086 27.6C70.4893 27.5919 70.4719 27.5799 70.4573 27.5649C70.4426 27.5498 70.4311 27.532 70.4234 27.5124C70.4157 27.4928 70.4119 27.4718 70.4122 27.4507V4.43795C70.4122 4.41685 70.4081 4.39596 70.4 4.3765C70.3919 4.35703 70.3801 4.33939 70.3652 4.3246C70.3503 4.30981 70.3327 4.29816 70.3133 4.29034C70.2939 4.28252 70.2732 4.27868 70.2523 4.27905Z" fill="white"/>
<path d="M81.1024 0.557607C81.1024 0.536503 81.1066 0.51561 81.1146 0.496147C81.1227 0.476685 81.1345 0.459042 81.1494 0.44425C81.1643 0.429458 81.1819 0.417812 81.2013 0.409992C81.2207 0.402173 81.2414 0.398336 81.2623 0.398706H87.3269C89.4274 0.398706 91.0042 0.968333 92.0572 2.10759C93.1102 3.24684 93.6358 4.91948 93.634 7.12551V9.8101C93.634 12.0124 93.1084 13.685 92.0572 14.828C91.006 15.971 89.4292 16.5415 87.3269 16.5397H85.4854C85.443 16.5397 85.4024 16.5567 85.3724 16.587C85.3424 16.6174 85.3256 16.6585 85.3256 16.7014V27.462C85.3259 27.4831 85.3221 27.5041 85.3144 27.5237C85.3067 27.5433 85.2952 27.5611 85.2805 27.5762C85.2659 27.5912 85.2484 27.6032 85.2292 27.6114C85.21 27.6195 85.1893 27.6237 85.1684 27.6237H81.2623C81.2199 27.6237 81.1792 27.6067 81.1492 27.5764C81.1193 27.546 81.1024 27.5049 81.1024 27.462V0.557607ZM87.3324 12.648C87.6181 12.6697 87.9051 12.6288 88.1739 12.5283C88.4426 12.4278 88.6868 12.2699 88.8899 12.0654C89.2354 11.6751 89.4081 11.0135 89.4081 10.0805V6.84395C89.4081 5.91284 89.2344 5.24936 88.8899 4.86187C88.5453 4.47437 88.0243 4.27923 87.3324 4.27923H85.491C85.4701 4.27886 85.4494 4.2827 85.43 4.29052C85.4106 4.29834 85.3929 4.30998 85.3781 4.32478C85.3632 4.33957 85.3514 4.35721 85.3433 4.37667C85.3352 4.39614 85.3311 4.41703 85.3311 4.43813V12.478C85.3311 12.5208 85.3479 12.562 85.3779 12.5923C85.4079 12.6226 85.4486 12.6396 85.491 12.6396L87.3324 12.648Z" fill="white"/>
<path d="M96.104 0.390165H100.016C100.036 0.389795 100.057 0.393632 100.077 0.401451C100.096 0.409271 100.114 0.420917 100.128 0.435709C100.143 0.450501 100.155 0.468144 100.163 0.487606C100.171 0.507069 100.175 0.527962 100.175 0.549066V23.5618C100.175 23.6047 100.192 23.6458 100.222 23.6761C100.252 23.7065 100.293 23.7235 100.335 23.7235H106.976C107.018 23.7235 107.059 23.7405 107.089 23.7709C107.119 23.8012 107.136 23.8423 107.136 23.8852V27.4507C107.136 27.4936 107.119 27.5347 107.089 27.565C107.059 27.5954 107.018 27.6124 106.976 27.6124H96.104C96.0616 27.6124 96.0209 27.5954 95.9909 27.565C95.9609 27.5347 95.9441 27.4936 95.9441 27.4507V0.557429C95.9429 0.535632 95.9462 0.513832 95.9538 0.493387C95.9614 0.472942 95.973 0.454291 95.988 0.438598C96.003 0.422904 96.021 0.410505 96.041 0.402172C96.0609 0.393839 96.0824 0.389752 96.104 0.390165Z" fill="white"/>
<path d="M110.634 26.2327C109.559 25.0507 109.021 23.3585 109.021 21.1562V0.557648C109.021 0.536677 109.025 0.515844 109.033 0.496395C109.04 0.476945 109.052 0.459277 109.067 0.444446C109.081 0.429615 109.099 0.417924 109.118 0.410073C109.137 0.402221 109.158 0.398369 109.179 0.398747H113.09C113.111 0.398377 113.132 0.402213 113.151 0.410033C113.171 0.417853 113.188 0.429498 113.203 0.444291C113.218 0.459083 113.23 0.476726 113.238 0.496188C113.246 0.515651 113.25 0.536544 113.25 0.557648V21.4657C113.25 22.3949 113.434 23.0686 113.801 23.4868C114.239 23.887 114.808 24.1086 115.397 24.1086C115.987 24.1086 116.556 23.887 116.994 23.4868C117.361 23.0705 117.545 22.3968 117.545 21.4657V0.557648C117.543 0.535506 117.546 0.513272 117.554 0.492432C117.561 0.471591 117.573 0.452623 117.589 0.436793C117.604 0.420963 117.623 0.408635 117.643 0.400632C117.664 0.392629 117.686 0.389135 117.707 0.390384H121.465C121.486 0.390014 121.506 0.39385 121.526 0.40167C121.545 0.409489 121.563 0.421135 121.578 0.435928C121.593 0.45072 121.604 0.468362 121.612 0.487825C121.62 0.507288 121.625 0.528181 121.625 0.549285V21.1562C121.625 23.3604 121.086 25.0525 120.009 26.2327C118.932 27.4128 117.37 28.002 115.323 28.0001C113.274 28.0001 111.711 27.411 110.634 26.2327Z" fill="white"/>
<path d="M125.941 26.2326C124.863 25.0506 124.323 23.3584 124.323 21.1561V6.84389C124.323 4.64158 124.862 2.95035 125.939 1.77021C127.016 0.59007 128.578 0 130.625 0C132.676 0 134.238 0.59007 135.311 1.77021C136.384 2.95035 136.923 4.64158 136.927 6.84389V9.01832C136.926 9.06024 136.909 9.10024 136.88 9.12989C136.85 9.15953 136.811 9.1765 136.769 9.17722H133.098C133.056 9.17723 133.015 9.16057 132.986 9.13085C132.956 9.10113 132.939 9.06072 132.938 9.01832V6.57348C132.938 4.78375 132.207 3.88889 130.746 3.88889C129.285 3.88889 128.555 4.78375 128.555 6.57348V21.4656C128.555 23.2274 129.285 24.1083 130.746 24.1083C132.207 24.1083 132.938 23.2274 132.938 21.4656V16.2999C132.938 16.2788 132.934 16.2578 132.927 16.2382C132.919 16.2186 132.907 16.2008 132.893 16.1857C132.878 16.1707 132.861 16.1587 132.841 16.1505C132.822 16.1424 132.802 16.1382 132.781 16.1382H130.983C130.962 16.1386 130.942 16.1347 130.922 16.1269C130.903 16.1191 130.885 16.1074 130.87 16.0926C130.856 16.0779 130.844 16.0602 130.836 16.0408C130.828 16.0213 130.823 16.0004 130.823 15.9793V12.411C130.823 12.3681 130.84 12.327 130.87 12.2967C130.9 12.2663 130.941 12.2493 130.983 12.2493H136.772C136.814 12.25 136.854 12.2674 136.884 12.2976C136.913 12.3279 136.929 12.3686 136.929 12.411V21.1561C136.929 23.3603 136.391 25.0524 135.314 26.2326C134.237 27.4127 132.675 28.0019 130.628 28C128.579 28 127.017 27.4109 125.941 26.2326Z" fill="white"/>
<path d="M144.51 28C146.436 28 147.997 26.4211 147.997 24.4735C147.997 22.5259 146.436 20.947 144.51 20.947C142.584 20.947 141.023 22.5259 141.023 24.4735C141.023 26.4211 142.584 28 144.51 28Z" fill="#FE4848"/>
</svg>
