<svg width="71" height="71" viewBox="0 0 71 71" fill="none" xmlns="http://www.w3.org/2000/svg">
<path d="M35.5002 0.083252C16.021 0.083252 0.0834961 16.0208 0.0834961 35.4999C0.0834961 54.9791 16.021 70.9166 35.5002 70.9166C54.9794 70.9166 70.9169 54.9791 70.9169 35.4999C70.9169 16.0208 54.9794 0.083252 35.5002 0.083252ZM35.5002 63.8333C19.8814 63.8333 7.16683 51.1187 7.16683 35.4999C7.16683 19.8812 19.8814 7.16659 35.5002 7.16659C51.1189 7.16659 63.8335 19.8812 63.8335 35.4999C63.8335 51.1187 51.1189 63.8333 35.5002 63.8333ZM51.7564 19.8458L28.4168 43.1854L19.2439 34.0479L14.2502 39.0416L28.4168 53.2083L56.7502 24.8749L51.7564 19.8458Z" fill="black"/>
</svg>
